# xmcd CD database file
#
# Track frame offsets:
#	182
#	18422
#	31345
#	47935
#	62792
#	79317
#	110427
#	126852
#	152780
#	175210
#
# Disc length: 2504 seconds
#
# Revision: 0
# Processed by: cddbd v1.5.1PL0 Copyright (c) Steve Scherf et al.
# Submitted via: CDex 1.51
#
DISCID=8309c60a
DTITLE=Bill Thomas - 'Cause she's my babe
DYEAR=1993
DGENRE=Blues
TTITLE0='Cause she's my babe
TTITLE1=Waiting for you to come
TTITLE2=Mean daddy baby
TTITLE3=Layin' all across my bed
TTITLE4=The way i feel today
TTITLE5=Wonder why
TTITLE6=Stay right here
TTITLE7=Jump and shout
TTITLE8=Without you
TTITLE9=One fine thing
EXTD=YEAR: 1993
EXTT0=
EXTT1=
EXTT2=
EXTT3=
EXTT4=
EXTT5=
EXTT6=
EXTT7=
EXTT8=
EXTT9=
PLAYORDER=
